<svg xmlns="http://www.w3.org/2000/svg" width="1600" height="900" viewBox="0 0 1600 900">

  <defs>
    <linearGradient id="bg-15" x1="0" y1="0" x2="1" y2="1">
      <stop offset="0%" stop-color="#11131b"/>
      <stop offset="58%" stop-color="#303344"/>
      <stop offset="100%" stop-color="#c58b57"/>
    </linearGradient>
    <radialGradient id="glow-15" cx="50%" cy="48%" r="52%">
      <stop offset="0%" stop-color="#c58b57" stop-opacity=".44"/>
      <stop offset="45%" stop-color="#c58b57" stop-opacity=".14"/>
      <stop offset="100%" stop-color="#11131b" stop-opacity="0"/>
    </radialGradient>
    <filter id="soft-15" x="-20%" y="-20%" width="140%" height="140%">
      <feGaussianBlur stdDeviation="18"/>
    </filter>
  </defs>

    <rect x="0" y="0" width="1600" height="900" fill="url(#bg-15)"/>
    <ellipse cx="810" cy="465" rx="680" ry="310" fill="url(#glow-15)"/>
    <rect x="0" y="665" width="1600" height="235" fill="rgba(5,7,10,.55)"/>
    <ellipse cx="815" cy="690" rx="530" ry="70" fill="rgba(0,0,0,.32)" filter="url(#soft-15)"/><path d="M530 170 C560 280 550 470 495 690 L355 690 C415 490 410 280 380 120 Z" fill="rgba(0,0,0,.34)"/><path d="M1070 170 C1040 280 1050 470 1105 690 L1245 690 C1185 490 1190 280 1220 120 Z" fill="rgba(0,0,0,.34)"/><ellipse cx="800" cy="685" rx="300" ry="48" fill="#c58b57" opacity=".24"/>
</svg>
