<svg xmlns="http://www.w3.org/2000/svg" width="1600" height="900" viewBox="0 0 1600 900">

  <defs>
    <linearGradient id="bg-16" x1="0" y1="0" x2="1" y2="1">
      <stop offset="0%" stop-color="#17110f"/>
      <stop offset="58%" stop-color="#3f241b"/>
      <stop offset="100%" stop-color="#e6b06a"/>
    </linearGradient>
    <radialGradient id="glow-16" cx="50%" cy="48%" r="52%">
      <stop offset="0%" stop-color="#e6b06a" stop-opacity=".44"/>
      <stop offset="45%" stop-color="#e6b06a" stop-opacity=".14"/>
      <stop offset="100%" stop-color="#17110f" stop-opacity="0"/>
    </radialGradient>
    <filter id="soft-16" x="-20%" y="-20%" width="140%" height="140%">
      <feGaussianBlur stdDeviation="18"/>
    </filter>
  </defs>

    <rect x="0" y="0" width="1600" height="900" fill="url(#bg-16)"/>
    <ellipse cx="810" cy="465" rx="680" ry="310" fill="url(#glow-16)"/>
    <rect x="0" y="665" width="1600" height="235" fill="rgba(5,7,10,.55)"/>
    <ellipse cx="815" cy="690" rx="530" ry="70" fill="rgba(0,0,0,.32)" filter="url(#soft-16)"/><path d="M500 610 C590 470 705 400 800 410 C895 400 1010 470 1100 610 Z" fill="rgba(0,0,0,.38)"/><circle cx="800" cy="405" r="44" fill="#e6b06a" opacity=".8"/><path d="M750 390 C800 325 850 390 800 470 C760 520 730 455 750 390 Z" fill="rgba(255,255,255,.18)"/>
</svg>
