<svg xmlns="http://www.w3.org/2000/svg" width="1600" height="900" viewBox="0 0 1600 900">

  <defs>
    <linearGradient id="bg-24" x1="0" y1="0" x2="1" y2="1">
      <stop offset="0%" stop-color="#111314"/>
      <stop offset="58%" stop-color="#33423b"/>
      <stop offset="100%" stop-color="#f2df9d"/>
    </linearGradient>
    <radialGradient id="glow-24" cx="50%" cy="48%" r="52%">
      <stop offset="0%" stop-color="#f2df9d" stop-opacity=".44"/>
      <stop offset="45%" stop-color="#f2df9d" stop-opacity=".14"/>
      <stop offset="100%" stop-color="#111314" stop-opacity="0"/>
    </radialGradient>
    <filter id="soft-24" x="-20%" y="-20%" width="140%" height="140%">
      <feGaussianBlur stdDeviation="18"/>
    </filter>
  </defs>

    <rect x="0" y="0" width="1600" height="900" fill="url(#bg-24)"/>
    <ellipse cx="810" cy="465" rx="680" ry="310" fill="url(#glow-24)"/>
    <rect x="0" y="665" width="1600" height="235" fill="rgba(5,7,10,.55)"/>
    <ellipse cx="815" cy="690" rx="530" ry="70" fill="rgba(0,0,0,.32)" filter="url(#soft-24)"/><path d="M555 245 C690 220 745 270 800 320 C855 270 910 220 1045 245 L1045 700 C920 660 855 685 800 735 C745 685 680 660 555 700 Z" fill="rgba(255,255,255,.18)"/><path d="M800 320 L800 735" stroke="rgba(255,255,255,.16)" stroke-width="5"/>
</svg>
